<?xml version="1.0" encoding="UTF-8" standalone="no"?>
<!DOCTYPE svg PUBLIC "-//W3C//DTD SVG 1.1//EN" "http://www.w3.org/Graphics/SVG/1.1/DTD/svg11.dtd">
<svg width="100%" height="100%" viewBox="0 0 1200 300" version="1.1" xmlns="http://www.w3.org/2000/svg" xmlns:xlink="http://www.w3.org/1999/xlink" xml:space="preserve" xmlns:serif="http://www.serif.com/" style="fill-rule:evenodd;clip-rule:evenodd;stroke-linejoin:round;stroke-miterlimit:2;">
    <g transform="matrix(1,0,0,1,-200.026,2.84217e-14)">
        <g transform="matrix(1,0,0,1,0,-450.001)">
            <g>
                <path d="M797.5,541L797.5,735.3L765.8,735.3L763.6,716.4C753,732.8 736.1,738.4 719.4,738.4C679.1,738.4 648.8,711.7 648.8,666.7C648.8,619.4 678.5,595 718.6,595C733.1,595 755.6,602.8 763.6,617L763.6,541L797.5,541ZM682.7,666.7C682.7,690.6 699.9,707 721.6,707C743,707 761.4,691.4 761.4,666.7C761.4,642.8 743.1,626.7 721.6,626.7C699.9,626.6 682.7,641.9 682.7,666.7Z" style="fill:rgb(11,9,5);fill-rule:nonzero;"/>
                <path d="M935.7,598.3L968.2,598.3L968.2,735.4L936.2,735.4L934.5,715.4C926.7,731.5 905.3,739.3 890,739.6C849.4,739.9 819.4,714.9 819.4,666.8C819.4,619.5 850.8,594.8 890.8,595.1C909.1,595.1 926.7,603.7 934.4,617.3L935.7,598.3ZM853.4,666.7C853.4,692.8 871.5,708.4 894,708.4C947.4,708.4 947.4,625.3 894,625.3C871.5,625.2 853.4,640.5 853.4,666.7Z" style="fill:rgb(11,9,5);fill-rule:nonzero;"/>
                <path d="M1028.2,598.3L1030.7,614.1C1041.3,597.1 1055.4,594.6 1069.3,594.6C1083.5,594.6 1097.1,600.2 1104.6,607.7L1089.3,637.2C1082.3,631.4 1076,628.3 1064.8,628.3C1047,628.3 1030.6,637.8 1030.6,663.1L1030.6,735.4L996.7,735.4L996.7,598.3L1028.2,598.3Z" style="fill:rgb(11,9,5);fill-rule:nonzero;"/>
                <path d="M1173.9,559.6L1173.9,598.5L1211.7,598.5L1211.7,627.7L1173.6,627.7L1173.6,687C1173.6,700.1 1180.8,706.5 1191.4,706.5C1196.7,706.5 1202.8,704.8 1207.8,702.3L1217.3,731.2C1207.6,735.1 1199.5,736.8 1189.2,737C1159.5,738.1 1140,721.2 1140,687L1140,627.8L1114.4,627.8L1114.4,598.6L1140,598.6L1140,577.4L1173.9,559.6Z" style="fill:rgb(11,9,5);fill-rule:nonzero;"/>
            </g>
            <path d="M1270.4,598.3L1367.7,734.5L1327.1,735.3L1229.8,598.3L1270.4,598.3Z" style="fill:rgb(11,9,5);fill-rule:nonzero;"/>
            <path d="M1290,667.4C1289.6,664.8 1289.3,662.2 1289.3,659.5L1283.4,659.5L1229.8,734.5L1270.4,735.3L1299.5,694.3C1295,686.6 1291.7,677.7 1290,667.4Z" style="fill:rgb(11,9,5);fill-rule:nonzero;"/>
            <path d="M1347.3,626.9L1367.7,598.3L1327.1,598.3L1306.6,626.9L1347.3,626.9Z" style="fill:rgb(78,196,212);fill-rule:nonzero;"/>
        </g>
        <g transform="matrix(1,0,0,1,0,-450.001)">
            <path d="M520.9,495.6L509.2,467.2C508.7,465.9 510,464.7 511.2,465.3L523.9,471.1L525.9,461.6C526.2,460 528.4,460 528.8,461.6L530.9,470.3L534.5,466.1C535.3,465.1 536.9,465.6 537.1,466.9L538,473.9L546.4,462.3C547.3,461.1 549.2,461.8 549.1,463.3L548.7,472.6L558.6,467.7C560,467 561.4,468.7 560.5,469.9L545.7,490.1L523.7,490.9" style="fill:rgb(78,196,212);fill-rule:nonzero;"/>
            <path d="M601,555.8C602.8,555.9 649.5,552.2 674.2,550.2C676.8,550 677.6,553.6 675.2,554.5L593.8,586.6" style="fill:rgb(148,115,92);fill-rule:nonzero;"/>
            <g>
                <g>
                    <g transform="matrix(0.8916,-0.4527,0.4527,0.8916,-272.114,269.402)">
                        <rect x="408.8" y="700.9" width="36" height="4.6" style="fill:rgb(148,115,92);"/>
                    </g>
                    <path d="M420.8,731.1L418.7,727L479.5,696.6L481.6,700.7L420.8,731.1Z" style="fill:rgb(148,115,92);fill-rule:nonzero;"/>
                </g>
                <g transform="matrix(0.8916,-0.4527,0.4527,0.8916,-277.169,263.414)">
                    <rect x="409.4" y="703.5" width="4.6" height="14.5" style="fill:rgb(148,115,92);"/>
                </g>
                <g transform="matrix(0.8916,-0.4527,0.4527,0.8916,-284.23,269.418)">
                    <rect x="418.4" y="721.2" width="4.6" height="14.5" style="fill:rgb(148,115,92);"/>
                </g>
            </g>
            <path d="M562.1,663.7C452.1,766.8 336.6,645 336.6,645C336.6,645 365.4,629 379.3,601.7C400.9,559.4 421.7,497.5 459.8,484.3C566.5,447.3 662,570 562.1,663.7Z" style="fill:rgb(173,222,229);fill-rule:nonzero;"/>
            <path d="M562.1,663.7C452.1,766.8 336.6,645 336.6,645C336.6,645 365.4,629 379.3,601.7C400.9,559.4 421.7,497.5 459.8,484.3C566.5,447.3 662,570 562.1,663.7Z" style="fill:none;fill-rule:nonzero;"/>
            <path d="M445.7,590.1C480.3,608.1 456.1,656.7 416.7,654.3C372.5,651.6 362.7,608 359.7,602.7C387.6,598.6 411.2,572.1 445.7,590.1Z" style="fill:rgb(78,196,212);fill-rule:nonzero;"/>
            <g transform="matrix(0.9946,-0.1038,0.1038,0.9946,-55.5349,61.6707)">
                <ellipse cx="564.5" cy="564.2" rx="25.2" ry="31" style="fill:rgb(78,196,212);"/>
            </g>
            <g>
                <g transform="matrix(0.9982,-0.0605534,0.0605534,0.9982,-33.1278,35.2187)">
                    <ellipse cx="564.5" cy="564.2" rx="8.3" ry="13.1" style="fill:rgb(11,9,5);"/>
                </g>
                <circle cx="564.2" cy="556.7" r="1.2" style="fill:white;"/>
                <circle cx="566.8" cy="564.9" r="3.6" style="fill:white;"/>
            </g>
            <path d="M436.9,526.9C436.9,526.9 453,624.2 592.7,624L591.5,628C591.5,628 478.9,644 437.4,541.3" style="fill:rgb(78,196,212);fill-rule:nonzero;"/>
            <g>
                <path d="M432.8,554.6C344,564.8 330.7,686.3 236.9,657C236.9,657 257.4,646.1 252.9,615.7C249,589.5 222.9,578.3 236,537.1C318.5,593.2 343.5,478.3 433.6,513.2L442.5,539.1C445,546.2 440.2,553.7 432.8,554.6Z" style="fill:rgb(78,196,212);fill-rule:nonzero;"/>
                <path d="M327.4,597.6C327.4,597.6 328.6,595.9 330.9,593C332.1,591.6 333.5,589.9 335.2,588C336.9,586.1 338.8,583.9 341,581.7C343.2,579.5 345.6,577 348.3,574.6C350.9,572.1 353.8,569.6 356.8,567C359.9,564.5 363,561.9 366.4,559.5C369.7,557 373.3,554.7 376.8,552.4C378.6,551.3 380.4,550.2 382.2,549.1C384,548.1 385.9,547.1 387.7,546.1C391.4,544.2 395.1,542.4 398.8,541C400.6,540.3 402.5,539.6 404.3,539C405.2,538.7 406.1,538.4 407,538.1C407.9,537.8 408.8,537.6 409.7,537.3C411.5,536.8 413.2,536.3 414.8,536C416.5,535.6 418.1,535.2 419.7,535C421.3,534.8 422.8,534.5 424.2,534.3C425.6,534.2 427,534.1 428.3,533.9C430.9,533.7 433.1,533.8 435,533.7C436.8,533.8 438.3,533.9 439.3,534C440.3,534.1 440.8,534.1 440.8,534.1C440.8,534.1 438.7,534.3 435.1,534.6C434.2,534.7 433.2,534.9 432.1,535C431,535.2 429.8,535.2 428.6,535.5C427.4,535.7 426,536 424.6,536.2C423.2,536.5 421.8,536.9 420.3,537.2C418.8,537.5 417.3,538.1 415.6,538.5C414,538.9 412.4,539.5 410.7,540.1C409,540.6 407.3,541.3 405.6,542C403.8,542.6 402.1,543.4 400.3,544.2C396.8,545.8 393.1,547.5 389.5,549.4C387.7,550.3 385.9,551.4 384.1,552.4C382.3,553.4 380.5,554.5 378.8,555.6C375.3,557.8 371.8,560.1 368.5,562.4C365.1,564.7 361.9,567.1 358.8,569.5C352.6,574.2 347.1,579 342.4,583.1C333.2,591.5 327.4,597.6 327.4,597.6Z" style="fill:rgb(242,242,242);fill-rule:nonzero;"/>
                <path d="M321.4,561.6C321.4,561.6 322.8,560.2 325.4,557.9C326.7,556.8 328.3,555.4 330.2,553.9C332.1,552.4 334.2,550.7 336.6,548.9C339,547.1 341.6,545.2 344.4,543.4C347.2,541.5 350.3,539.6 353.5,537.7C355.1,536.8 356.8,535.8 358.4,534.9C360.1,534 361.8,533.1 363.5,532.2C365.2,531.3 367,530.4 368.8,529.6C370.6,528.8 372.4,528 374.3,527.2C376.1,526.4 378,525.7 379.9,525C381.8,524.3 383.7,523.7 385.5,523.1C387.4,522.5 389.3,522 391.1,521.5C393,521 394.8,520.6 396.7,520.2C400.4,519.5 404,518.9 407.4,518.6C410.8,518.3 414.1,518.2 417.1,518.3C418.6,518.4 420,518.5 421.4,518.5C422.8,518.6 424,518.8 425.2,519C427.6,519.3 429.7,519.9 431.4,520.2C433.1,520.6 434.4,521.1 435.3,521.4C436.2,521.7 436.7,521.8 436.7,521.8C436.7,521.8 434.7,521.5 431.3,521C430.4,520.9 429.5,520.9 428.5,520.8C427.5,520.7 426.4,520.6 425.2,520.6C424,520.6 422.7,520.5 421.4,520.5C420.1,520.5 418.7,520.6 417.2,520.6C414.3,520.8 411.1,521 407.8,521.5C404.5,522 401,522.6 397.5,523.5C395.7,523.9 394,524.5 392.1,524.9C390.3,525.4 388.5,526 386.7,526.5C383.1,527.7 379.4,529 375.8,530.5C372.2,531.9 368.6,533.6 365.2,535.2C363.5,536 361.8,536.9 360.1,537.7C358.4,538.6 356.8,539.4 355.2,540.3C352,542 348.9,543.8 346,545.5C343.1,547.2 340.4,548.9 337.9,550.4C327.7,556.9 321.4,561.6 321.4,561.6Z" style="fill:rgb(242,242,242);fill-rule:nonzero;"/>
            </g>
            <path d="M578.5,654.8C578.3,654.7 578.1,654.7 577.8,654.6C573.2,652.9 570.4,649.4 570.1,644.8C569.7,638.7 573.5,631.9 579.6,627.2C579.6,627.1 579.5,627 579.5,626.8L580.5,626.5C581.4,625.9 582.3,625.3 583.2,624.8L584.6,627.3C584,627.6 583.4,628 582.9,628.3C584.6,634.8 588,649.7 583.5,653.9C582.6,654.7 581,655.5 578.5,654.8ZM580.4,630.1C575.6,634.2 572.6,639.7 572.9,644.5C573.1,648 575.2,650.5 578.8,651.8C580.7,652.5 581.4,651.9 581.6,651.7C584.1,649.4 582.6,638.7 580.4,630.1Z" style="fill:rgb(78,196,212);fill-rule:nonzero;"/>
            <path d="M588.6,647.7C584.1,646 582.1,634.4 581.4,629.2C580.9,629.1 580.4,629 579.9,629L580.1,626.8C580.9,626.9 581.8,627 582.6,627.2L583.4,627.1L583.4,627.4C589.2,628.9 593.9,632.7 595.4,637.2C596.5,640.6 595.6,643.9 592.8,646.5C592.7,646.6 592.5,646.8 592.4,646.9C590.9,648.1 589.5,648 588.6,647.7ZM589.4,645.6C589.6,645.7 590.2,645.9 591.4,644.8C593.6,642.8 594.3,640.4 593.4,637.8C592.2,634.3 588.4,631.2 583.8,629.7C584.8,636.6 586.9,644.7 589.4,645.6Z" style="fill:rgb(78,196,212);fill-rule:nonzero;"/>
        </g>
    </g>
</svg>
